# xmcd CD database file
#
# Track frame offsets:
#	183
#	8690
#	18610
#	28890
#	41008
#	53635
#	66170
#	76995
#	86763
#	94438
#	103825
#	115903
#	126105
#	136080
#	146090
#	156068
#	165513
#	176415
#	185425
#	195655
#
# Disc length: 2764 seconds
#
# Revision: 0
# Processed by: cddbd v1.4PL0 Copyright (c) Steve Scherf et al.
# Submitted via: CDex 1.50Beta7
#
DISCID=0e0aca14
DTITLE=Johnny Cash - Guess Things Happen That Way
DYEAR=1900
DGENRE=Country
TTITLE0=Guess things happen that way
TTITLE1=Ballad of a teenage queen
TTITLE2=The wyas of a woman in love
TTITLE3=You're the nearest thing to heaven
TTITLE4=Next in line
TTITLE5=Folsom prison blues
TTITLE6=I just thought you'd like to know
TTITLE7=It's just about time
TTITLE8=Come in stranger
TTITLE9=Luthoe played the boogie
TTITLE10=Home of the blues
TTITLE11=Straight A's in love
TTITLE12=Het proters
TTITLE13=The story of a broken heart
TTITLE14=Goodbye little darling
TTITLE15=Down the street to 301
TTITLE16=I heard that lonesome whistle blow
TTITLE17=Remember me
TTITLE18=I was there when it happened
TTITLE19=Doing my time
EXTD=
EXTT0=
EXTT1=
EXTT2=
EXTT3=
EXTT4=
EXTT5=
EXTT6=
EXTT7=
EXTT8=
EXTT9=
EXTT10=
EXTT11=
EXTT12=
EXTT13=
EXTT14=
EXTT15=
EXTT16=
EXTT17=
EXTT18=
EXTT19=
PLAYORDER=
